<svg width="80" height="80" viewBox="0 0 80 80" fill="none" xmlns="http://www.w3.org/2000/svg">
<path d="M60.2527 65.1059C61.6118 67.2534 63.1435 70.2568 64.2626 72.4758H74.7127C72.3207 66.8273 68.8068 60.5906 65.436 55.8066C64.2181 59.2719 62.4354 62.3849 60.2527 65.1059Z" fill="#292828"/>
<path d="M35.7482 76.4946C46.1098 73.4433 55.7526 65.3179 60.4186 53.6714C61.5026 50.9656 63.4248 46.0954 62.7222 39.2127C62.373 35.7923 60.4185 30.1318 58.0457 24.5762L49.5776 28.2378C50.3907 30.1318 51.6103 33.6492 52.2878 35.6785C52.6944 36.896 53.1399 38.1136 53.3719 40.0076C54.5685 49.7751 48.2709 62.9681 33.5919 67.2908C23.8347 70.1641 18.5581 66.2831 16.6733 59.9042C14.4319 52.3184 16.9012 46.0628 26.7447 43.164C34.2569 40.9519 40.2186 43.9751 45.471 49.3624L48.6539 39.8044C41.6268 32.2224 31.5713 30.5921 23.282 33.0331C7.56687 37.6609 2.84213 50.5777 6.50984 62.9908C9.89739 74.4557 20.9828 80.8427 35.7482 76.4946Z" fill="#292828"/>
<path fill-rule="evenodd" clip-rule="evenodd" d="M71.2672 9.45591C57.5251 20.7062 47.6188 23.7233 37.3914 24.8759C30.8237 25.6161 18.2058 25.8315 11.9177 25.2955L11.9177 15.8599C17.5443 16.3396 30.3413 16.1404 36.3273 15.4658C44.6141 14.5319 52.8252 12.3069 65.2522 2.1333L71.2672 9.45591Z" fill="#292828"/>
</svg>
